<svg xmlns="http://www.w3.org/2000/svg" xml:space="preserve" width="2850" height="1800"><linearGradient id="a" gradientUnits="userSpaceOnUse" x1="0" y1="900" x2="2850" y2="900"><stop offset="0" style="stop-color:#ffd2b4"/><stop offset=".998" style="stop-color:#fff9d4"/></linearGradient><path fill="url(#a)" d="M0 0h2850v1800H0z"/><path opacity=".52" fill="#F8FEFF" d="M2798.198 643.157c-5.694 1.763-28.47-4.408-39.859-22.921-11.388-18.513-47.831-37.027-76.302-43.354-28.471-6.327-66.053 6.327-78.58 26.604-12.527 20.277 9.111 51.132-3.417 47.606-12.527-3.526-25.071-25.592-58.08-12.342-30.749 12.342-7.971 33.501-17.083 37.027-9.11 3.527-46.49-15.747-71.746-13.224-35.304 3.527-50.49 28.463-45.935 39.042s-10.19 22.77-26.134 14.836c-15.944-7.934-16.76-14.206-34.982-14.206-18.221 0-30.179 14.546-26.193 23.803 1.836 4.265-14.236 7.053-21.638 2.645-3.83-2.281-12.527-10.579-28.471-9.698s-13.666 17.632-21.638 15.869c-7.972-1.763-22.697-.642-25.054 6.171-7.972 23.038 58.08 17.632 77.441 17.69 19.36.059 124.133-7.992 145.771-5.348s251.682 14.105 291.541 9.697c13.455-1.488 58.459-1.971 112.16-1.958V612.503c-37.738-.604-46.347 28.965-51.801 30.654zM1789.599 735.526s-270.019-3.306-304.014 0c-33.995 3.306-230.196-5.29-248.651-7.273-18.454-1.984-107.813 4.055-124.325 4.011s-72.847 4.011-66.048-13.268c2.011-5.11 14.569-5.951 21.369-4.628 6.799 1.322 4.856-11.24 18.454-11.901s21.016 5.562 24.282 7.273c6.313 3.306 20.021 1.215 18.455-1.984-3.399-6.943 6.799-17.852 22.34-17.852s16.237 4.704 29.835 10.655c13.598 5.951 26.174-3.193 22.289-11.127-3.885-7.934 9.067-26.636 39.177-29.281 21.54-1.892 53.421 12.563 61.191 9.918 7.77-2.645-11.656-18.514 14.569-27.77 28.152-9.937 38.851 6.612 49.536 9.257 10.684 2.645-7.771-20.497 2.914-35.705 10.685-15.208 42.737-24.698 67.019-19.953 24.282 4.745 55.364 18.63 65.077 32.515 9.713 13.885 29.139 18.514 33.995 17.191 4.857-1.322 12.627-25.456 48.565-22.811s40.794 16.861 40.794 16.861 3.399-14.877 28.653-16.861 47.094 2.047 65.562 11.571c16.027 8.265 18.455 22.481 29.139 19.836 10.684-2.645 11.713-13.073 28.168-14.216 23.796-1.653 39.823 14.28 36.909 25.488-2.914 11.208 8.741-.693 17.483-3.999s33.995 4.628 26.225 17.191c-7.77 12.563 8.966 16.089 17.483 11.901 17.483-8.595 42.251-5.62 57.306 12.563 11.846 14.308 33.995 6.612 33.995 6.612s37.88-5.289 49.536 9.918c11.655 15.208 0 16.618 0 16.618l-227.282-.75zM2381.797 326.081s-396.543-6.52-446.468 0c-49.924 6.52-338.06-10.433-365.162-14.345-27.102-3.912-158.332 7.997-182.581 7.911-24.249-.087-106.981 7.911-96.996-26.168 2.953-10.077 21.396-11.737 31.381-9.128 9.985 2.608 7.132-22.169 27.102-23.474 19.97-1.304 30.864 10.971 35.66 14.345 9.272 6.52 29.402 2.396 27.102-3.912-4.993-13.693 9.985-35.21 32.807-35.21 22.823 0 23.846 9.277 43.815 21.014 19.97 11.737 38.438-6.297 32.733-21.946-5.706-15.649 13.316-52.535 57.535-57.751 31.634-3.732 78.453 24.777 89.864 19.561 11.411-5.216-17.117-36.514 21.396-54.771 41.344-19.599 57.057 13.041 72.747 18.257 15.691 5.216-11.411-40.426 4.279-70.42 15.691-29.994 62.762-48.712 98.423-39.353 35.66 9.359 81.305 36.744 95.57 64.13 14.264 27.385 42.792 36.514 49.925 33.906 7.132-2.608 18.543-50.207 71.321-44.991 52.777 5.216 59.909 33.254 59.909 33.254s4.992-29.342 42.079-33.254c37.087-3.912 69.162 4.037 96.283 22.821 23.536 16.301 27.102 44.338 42.792 39.122 15.691-5.216 17.2-25.783 41.366-28.038 34.947-3.26 58.483 28.164 54.204 50.27-4.279 22.106 12.838-1.367 25.675-7.887 12.838-6.52 49.925 9.128 38.513 33.906-11.411 24.777 13.167 31.732 25.676 23.474 25.675-16.953 62.049-11.085 84.158 24.777 17.397 28.219 49.924 13.041 49.924 13.041s55.63-10.433 72.747 19.561c17.117 29.994 0 32.774 0 32.774l-333.779-1.476zM923.294 388.546c-15.852-27.777-67.37-18.115-67.37-18.115s-30.123 14.056-46.235-12.077c-20.475-33.212-54.161-38.646-77.938-22.946-11.583 7.648-34.345 1.208-23.778-21.738 10.568-22.946-23.778-37.439-35.667-31.4-11.889 6.039-27.741 27.777-23.778 7.305 3.963-20.472-17.833-49.574-50.197-46.555-22.38 2.088-23.778 21.134-38.309 25.965-14.531 4.831-17.833-21.134-39.63-36.231-25.117-17.396-54.821-24.758-89.167-21.134-34.346 3.623-38.969 30.796-38.969 30.796s-6.605-25.965-55.481-30.796c-48.877-4.831-59.444 39.25-66.05 41.665-6.605 2.416-33.025-6.039-46.235-31.4-13.21-25.362-55.481-50.723-88.506-59.39-33.025-8.667-76.617 8.667-91.148 36.444s10.568 70.046-3.963 65.215c-10.567-3.513-21.154-20.44-40.863-22.442v171.622c82.257 4.233 175.155 7.534 200.703 4.197 46.235-6.038 413.469 0 413.469 0l309.111 1.368c.001 0 15.852-2.576.001-30.353z"/><path fill="#FFE8B0" d="m2038.953 1369.343 418.513-338.375 211.899 200.798 35.607-36.365L2850 1279.19v199.568h-656.022z"/><path fill="#E9EEFF" d="M1708.819 1012.777c1.586-2.124-301.525-203.422-301.525-203.422l-138.542 101.711 260.524 368.212 179.543-266.501z"/><path fill="#FFDE8C" d="m1459.966 1146.822 362.705-333.996 306.682 363.077 37.746-13.965 169.854 172.229 122.673-88.442 245.346 274.995H1365.007z"/><path fill="#FFAF54" d="m2129.353 1175.903 67.458 103.376-29.712-117.341zM2336.953 1334.167l122.673-88.442v115.727l-24.839 27.354 50.605 73.279-15.803.747zM1738.606 1125.787l108.782-153.713s-25.261-153.119-24.717-159.247l-362.705 333.995-94.959 373.898h380.196l42.862-241.441-49.459-153.492z"/><path fill="#FFE8B0" d="M516.307 925.466 175.543 764.052 0 925.466v526.78l177.493-31.075L569.369 951.5z"/><path fill="#FFDE8C" d="m1129.319 408.451 1017.39 1026.384-1177.466-1.324-232.597-214.762z"/><path fill="#FFAF54" d="m1129.319 408.451-780.563 701.212-42.192-34.909L0 1336.738v137.684l1009.774-35.284-158.222-148.356 87.9-88.494-31.644-49.452 101.966-72.877-98.45-127.534 193.353-233.574zM2066.46 1419.215l-644.651-374.898 322.326 374.898z"/><path fill="#FFAF54" d="M1464.785 1434.835c0-7.81-190.325-161.414-190.325-161.414l-30.698 13.017-122.79-119.759-270.139 268.156h613.952z"/><linearGradient id="b" gradientUnits="userSpaceOnUse" x1="1242.244" y1="1338.327" x2="1260.837" y2="1686.947"><stop offset="0" style="stop-color:#ffdf9e"/><stop offset="1" style="stop-color:#de9a24"/></linearGradient><path fill="url(#b)" d="M0 1452.443s588.076-108.47 770.681-129.914c182.606-21.444 473.283-24.384 804.954 0 331.671 24.384 863.094 176.475 937.627 225.244C2587.795 1596.541.024 1696.392.024 1696.392L0 1452.443z"/><linearGradient id="c" gradientUnits="userSpaceOnUse" x1="1423.092" y1="1555.427" x2="1429.037" y2="1817.01"><stop offset="0" style="stop-color:#ffdf9e"/><stop offset="1" style="stop-color:#de9a24"/></linearGradient><path fill="url(#c)" d="M582.74 1577.689c191.838-57.276 591.283-119.759 699.028-114.552 107.745 5.207 383.677 80.707 546.608 93.724 18.281 1.46 39.325 1.462 62.388.323 49.073-2.423 107.358-10.05 168.044-19.993 164.997-27.035 347.669-71.177 410.78-74.359 97.233-4.903 380.411 15.926 380.411 15.926v321.221l-2206.824.306L0 1799.979V1619.37s390.901 15.595 582.74-41.681z"/><path fill="#3CA35D" d="m2381.209 1523.656-6.024 10.668s-3.399-4.845-2.217-6.42c1.183-1.573 8.241-4.248 8.241-4.248zM2306.781 1543.193l6.136 10.604s-5.899.471-6.657-1.348c-.755-1.817.521-9.256.521-9.256zM2334.294 1538.184l10.492-6.133s-2.331 7.315-4.69 9.417c-2.36 2.102-10.981-.26-5.802-3.284zM2182.187 1474.094l-7.66-9.786s-1.664 3.356 1.41 7.678c2.907 4.087 4.567 3.472 6.25 2.108zM2188.942 1505.344s4.682 8.645 5.718 9.588c1.037.943-6.265.262-7.283-2.703-1.018-2.964 1.151-3.696 1.565-6.885zM2334.483 1485.737l2.009-52.829 1.925.074-2.009 52.829z"/><path fill="#3CA35D" d="m2313.476 1568.043-1.816-.63 36.048-129.889 1.855.514-31.97 115.198c17.268-41.214 42.492-101.526 43.053-103.289l1.863.488c-.356 1.486-44.051 105.726-49.033 117.608z"/><path fill="#3CA35D" d="m2348.333 1479.855 3.576-25.936 1.908.263-3.576 25.936zM2332.737 1517.3l42.352-56.603 1.542 1.153-42.352 56.604zM2322.15 1546.999l-1.154-1.544c3.938-2.946 64.776-63.68 66.424-66.311l.783.49.67-.846.37.783c-.027 2.108-66.424 66.927-67.093 67.428zM2320.07 1568.418l72.728-79.043 1.418 1.305-72.728 79.043z"/><path fill="#3CA35D" d="m2338.203 1549.502 52.515-22.55.76 1.77-52.514 22.55zM2299.612 1568.533l-1.926.041-.878-40.241 17.622-102.419 1.899.328-17.609 102.235z"/><path fill="#3CA35D" d="m2299.056 1532.024-1.892.364c-21.709-112.873-21.403-113.32-21.108-113.753l.796.543.177.944-.175-.947.956.025c.117 2.473 13.949 74.882 21.246 112.824z"/><path fill="#3CA35D" d="m2298.404 1524.613-1.924-.129 3.475-52.444 4.523-51.333 1.92.168-4.523 51.314z"/><path fill="#3CA35D" d="m2284.383 1418.78 1.84-.571 15.83 50.968-1.84.572zM2307.549 1466.757l22.238-36.08 1.64 1.011-22.239 36.08zM2323.324 1451.284l1.926-.006.211 72.985-1.926.006zM2309.044 1516.01l1.918-.168 4.216 48.053-1.919.168zM2266.503 1571.558l2.323-151.827 1.927.03-2.323 151.827zM2281.561 1570.511l-1.924-.089c2.47-52.871 4.537-80.187 6.142-81.194l.968-.079-.757 1.773c.488.206.944-.084 1.049-.297-1.412 2.795-4.049 49.307-5.478 79.886zM2243.538 1444.162l1.683-.939 14.124 25.305-1.682.939z"/><path fill="#3CA35D" d="m2273.116 1470.153 1.918-.183 7.725 80.68-1.918.184zM2250.039 1581.149l-4.004-62.943 1.922-.122 2.988 46.962 10.015-56.36-7.805-89.288 1.918-.169 7.805 89.668z"/><path fill="#3CA35D" d="m2233.383 1546.443 18.13-74.616 1.87.454-18.13 74.616z"/><path fill="#3CA35D" d="m2236.056 1580.937-19.559-60.349-.011-.099-9.853-91.042 1.915-.207 9.842 90.944 15.489 47.788-2.837-146.708 1.927-.037z"/><path fill="#3CA35D" d="m2191.394 1438.99 1.773-.754 21.156 49.8-1.773.754zM2218.946 1427.875l1.9-.308 13.786 85.105-1.9.308zM2222.799 1575.833c-11.792-26.424-31.589-70.916-31.685-72.016l1.92-.165-.96.083.937-.215c.576 1.978 22.968 52.305 31.547 71.53l-1.759.783zM2184.297 1446.748l1.831-.599 41.592 127.373-1.832.598z"/><path fill="#3CA35D" d="m2194.937 1545.607 1.231-1.481 22.824 18.977-1.231 1.48zM2367.524 1476.824l10.492-6.133s-2.331 7.315-4.69 9.417c-2.36 2.101-10.981-.261-5.802-3.284zM2269.782 1450.464l8.545-4.996s-1.898 5.958-3.82 7.669c-1.922 1.711-8.943-.212-4.725-2.673zM2284.708 1511.991l5.822-8.005s.652 6.218-.422 8.556c-1.075 2.339-8.278 3.395-5.4-.551zM2246.176 1448.734l-7.661-9.786s-1.663 3.356 1.411 7.678c2.907 4.086 4.567 3.472 6.25 2.108zM2225.894 1480.217l-7.661-9.786s-1.663 3.356 1.411 7.678c2.908 4.088 4.567 3.472 6.25 2.108zM2243.413 1483.067l2.046 14.078s-7.14-2.035-7.335-6.15c-.196-4.113 5.289-7.928 5.289-7.928zM2320.396 1462.262s1.978 12.724 2.842 14.341c.865 1.618-7.844-2.429-7.797-6.534.046-4.105 3.042-4.056 4.955-7.807zM2318.303 1492.642s4.166 12.185 5.299 13.628c1.134 1.442-8.148-1.026-8.818-5.076-.669-4.05 2.29-4.524 3.519-8.552zM2383.403 1505.83s-7.405 5.091-8.64 5.428c-1.235.335 4.992 2.815 7.05.827 2.062-1.989.601-3.489 1.59-6.255zM2297.688 1465.658s.945 8.936 1.492 10.094c.548 1.156-5.384-1.962-5.211-4.82.171-2.861 2.26-2.725 3.719-5.274zM2290.062 1529.653s-4.117 7.989-5.046 8.869c-.93.88 5.729.121 6.603-2.605.876-2.728-1.12-3.357-1.557-6.264zM2356.984 1441.984s-7.405 5.091-8.64 5.429c-1.235.335 4.991 2.815 7.05.827 2.063-1.99.601-3.49 1.59-6.256zM2296.124 1426.255s-1.075 8.923-1.639 10.072c-.564 1.148 5.412-1.886 5.282-4.744-.131-2.862-2.221-2.756-3.643-5.328zM2255.642 1508.137s3.18 9.303 4.046 10.405c.865 1.1-6.222-.783-6.733-3.876-.512-3.091 1.749-3.453 2.687-6.529zM2209.697 1488.961s3.365 6.214 4.111 6.892c.745.678-4.503.188-5.234-1.942-.732-2.131.826-2.657 1.123-4.95zM2203.179 1438.629s3.487 6.438 4.259 7.142c.773.702-4.666.195-5.426-2.014-.757-2.21.857-2.754 1.167-5.128zM2280.345 1554.01s-4.226-7.688-3.89-11.983c.335-4.297-5.748 4.735-3.005 9.013 2.744 4.281 5.719 3.074 6.895 2.97zM2233.899 1530.364s-5.467-6.862-5.863-11.151c-.398-4.292-4.864 5.639-1.437 9.391 3.43 3.755 6.159 2.062 7.3 1.76zM2172.048 1453.563l1.711-.884 39.007 75.499-1.71.884z"/><path fill="#3CA35D" d="m2156.33 1463.699 1.674-.954 52.274 91.682-1.673.954zM2337.473 1564.93l50.837-19.204.681 1.803-50.837 19.204zM953.347 1500.484l-4.912 8.698s-2.772-3.95-1.808-5.235c.965-1.282 6.72-3.463 6.72-3.463zM892.658 1516.414l5.004 8.646s-4.81.384-5.428-1.099c-.616-1.481.424-7.547.424-7.547zM915.092 1512.33l8.555-5s-1.901 5.964-3.824 7.678c-1.924 1.713-8.954-.213-4.731-2.678zM791.064 1460.071l-6.247-7.98s-1.356 2.736 1.15 6.261c2.372 3.332 3.725 2.831 5.097 1.719zM796.573 1485.552s3.818 7.049 4.663 7.818c.845.768-5.108.214-5.938-2.204-.832-2.417.937-3.014 1.275-5.614zM915.135 1469.472l1.638-43.077 1.57.06-1.638 43.076z"/><path fill="#3CA35D" d="m898.118 1536.677-1.481-.514 29.393-105.911 1.513.42-26.069 93.932c14.08-33.605 34.648-82.784 35.105-84.222l1.519.398c-.289 1.211-35.919 86.209-39.98 95.897z"/><path fill="#3CA35D" d="m926.512 1464.776 2.914-21.148 1.555.214-2.914 21.149zM913.71 1495.319l34.528-46.155 1.257.94-34.529 46.155zM905.19 1519.518l-.941-1.259c3.211-2.402 52.818-51.925 54.162-54.07l.639.4.547-.69.302.638c-.024 1.718-54.163 54.572-54.709 54.981zM903.496 1536.978l59.31-64.443 1.156 1.064-59.31 64.443z"/><path fill="#3CA35D" d="m918.15 1521.64 42.82-18.383.62 1.444-42.82 18.384zM886.812 1537.077l-1.57.033-.716-32.812 14.37-83.513 1.547.268-14.358 83.362z"/><path fill="#3CA35D" d="m886.359 1507.307-1.542.297c-17.702-92.037-17.452-92.401-17.212-92.754l.649.443.144.77-.142-.772.779.021c.095 2.015 11.374 61.057 17.324 91.995z"/><path fill="#3CA35D" d="m885.827 1501.264-1.568-.105 2.833-42.763 3.689-41.857 1.564.137-3.687 41.842z"/><path fill="#3CA35D" d="m874.39 1414.941 1.5-.466 12.907 41.56-1.5.466zM893.219 1454.06l18.125-29.423 1.338.824-18.126 29.422zM906.082 1441.558l1.57-.005.179 59.511-1.57.005zM894.487 1494.244l1.565-.138 3.437 39.183-1.565.137zM859.858 1539.62l1.895-123.8 1.57.024-1.894 123.8zM872.093 1538.689l-1.569-.073c2.015-43.11 3.699-65.384 5.008-66.205l.789-.065-.617 1.446c.398.168.77-.068.855-.243-1.149 2.281-3.3 40.206-4.466 65.14zM841.082 1435.655l1.372-.766 11.517 20.633-1.372.766z"/><path fill="#3CA35D" d="m865.194 1456.89 1.563-.15 6.299 65.787-1.564.15zM846.391 1547.364l-3.266-51.324 1.568-.1 2.437 38.293 8.165-45.956-6.364-72.805 1.565-.138 6.364 73.115z"/><path fill="#3CA35D" d="m832.981 1519.06 14.777-60.848 1.526.37-14.777 60.848z"/><path fill="#3CA35D" d="m834.989 1547.191-15.949-49.209-.009-.08-8.034-74.236 1.562-.169 8.026 74.156 12.629 38.966-2.314-119.626 1.571-.03z"/><path fill="#3CA35D" d="m798.549 1431.41 1.446-.614 17.25 40.607-1.446.615zM821.075 1422.308l1.55-.251 11.233 69.394-1.55.25zM824.179 1543.028c-9.615-21.546-25.758-57.825-25.836-58.722l1.565-.135-.783.067.764-.175c.47 1.613 18.728 42.65 25.723 58.325l-1.433.64zM792.81 1437.788l1.494-.487 33.913 103.86-1.493.487z"/><path fill="#3CA35D" d="m801.474 1518.342 1.005-1.208 18.61 15.473-1.004 1.208zM942.188 1462.297l8.555-5s-1.901 5.964-3.825 7.678c-1.924 1.713-8.953-.213-4.73-2.678zM862.489 1440.802l6.967-4.073s-1.547 4.858-3.115 6.252c-1.566 1.397-7.291-.171-3.852-2.179zM874.66 1490.972l4.747-6.527s.531 5.07-.344 6.977c-.876 1.907-6.749 2.768-4.403-.45zM843.241 1439.392l-6.246-7.979s-1.356 2.737 1.15 6.26c2.371 3.332 3.724 2.831 5.096 1.719zM826.703 1465.064l-6.247-7.979s-1.356 2.737 1.151 6.261c2.37 3.332 3.724 2.83 5.096 1.718zM840.988 1467.387l1.668 11.479s-5.822-1.659-5.981-5.014c-.16-3.354 4.313-6.465 4.313-6.465zM903.759 1450.423s1.613 10.375 2.317 11.694c.706 1.319-6.396-1.981-6.358-5.328.039-3.347 2.482-3.308 4.041-6.366zM902.053 1475.195s3.397 9.936 4.321 11.112c.924 1.176-6.644-.836-7.19-4.139-.546-3.302 1.868-3.689 2.869-6.973zM955.135 1485.948s-6.038 4.151-7.046 4.426c-1.006.273 4.07 2.296 5.749.674 1.682-1.621.491-2.844 1.297-5.1zM885.243 1453.192s.771 7.286 1.217 8.23c.446.943-4.39-1.6-4.249-3.931.139-2.331 1.842-2.22 3.032-4.299zM879.026 1505.374s-3.357 6.514-4.115 7.232 4.672.099 5.385-2.124c.713-2.225-.915-2.738-1.27-5.108zM933.594 1433.888s-6.038 4.152-7.045 4.427c-1.007.273 4.07 2.295 5.749.674 1.681-1.622.49-2.845 1.296-5.101zM883.969 1421.063s-.877 7.275-1.336 8.213c-.46.936 4.413-1.538 4.307-3.868-.108-2.334-1.812-2.248-2.971-4.345zM850.959 1487.83s2.593 7.585 3.299 8.484c.706.897-5.073-.639-5.49-3.16-.417-2.521 1.426-2.817 2.191-5.324zM813.496 1472.193s2.744 5.067 3.352 5.62c.608.553-3.671.153-4.268-1.583-.597-1.738.673-2.167.916-4.037zM808.181 1431.153s2.844 5.25 3.473 5.824c.63.572-3.805.159-4.424-1.643-.618-1.802.698-2.245.951-4.181zM871.102 1525.234s-3.446-6.269-3.171-9.771c.273-3.503-4.687 3.86-2.45 7.35 2.236 3.49 4.662 2.506 5.621 2.421zM833.23 1505.954s-4.458-5.595-4.781-9.093c-.325-3.5-3.966 4.598-1.171 7.658 2.797 3.062 5.021 1.68 5.952 1.435zM782.814 1443.289l1.395-.721 31.807 61.563-1.395.72z"/><path fill="#3CA35D" d="m769.98 1451.574 1.364-.778 42.624 74.758-1.364.778zM917.624 1534.116l41.453-15.655.556 1.47-41.453 15.655zM1407.68 1364.836l-2.866 5.074s-1.617-2.304-1.055-3.054c.563-.747 3.921-2.02 3.921-2.02zM1372.275 1374.13l2.919 5.044s-2.807.224-3.167-.641c-.359-.865.248-4.403.248-4.403zM1385.363 1371.747l4.991-2.917s-1.109 3.479-2.231 4.479c-1.123 1-5.224-.124-2.76-1.562zM1313.007 1341.26l-3.644-4.655s-.791 1.597.671 3.652c1.383 1.944 2.173 1.652 2.973 1.003zM1316.22 1356.125s2.227 4.112 2.72 4.561c.494.448-2.98.125-3.464-1.286-.484-1.41.547-1.758.744-3.275zM1385.445 1346.768l.96-25.13.917.035-.96 25.13z"/><path fill="#3CA35D" d="m1375.46 1385.951-.864-.3 17.148-61.787.883.245-15.208 54.799c8.214-19.605 20.213-48.295 20.48-49.134l.886.232c-.17.706-20.955 50.292-23.325 55.945z"/><path fill="#3CA35D" d="m1392.019 1344.048 1.7-12.338.907.125-1.7 12.338zM1384.555 1361.787l20.14-26.93.734.55-20.14 26.929zM1379.586 1375.94l-.549-.734c1.873-1.401 30.813-30.292 31.598-31.544l.372.234.319-.403.176.372c-.013 1.003-31.597 31.837-31.916 32.075zM1378.607 1386.135l34.596-37.6.674.62-34.596 37.6z"/><path fill="#3CA35D" d="m1387.174 1377.136 24.98-10.724.362.842-24.98 10.725zM1368.865 1386.184l-.916.019-.418-19.142 8.383-48.72.903.156-8.377 48.632z"/><path fill="#3CA35D" d="m1368.601 1368.816-.9.173c-10.327-53.693-10.181-53.905-10.041-54.111l.379.258.084.449-.083-.45.455.012c.055 1.177 6.634 35.621 10.106 53.669z"/><path fill="#3CA35D" d="m1368.29 1365.291-.915-.061 1.653-24.947 2.152-24.419.913.08-2.151 24.41z"/><path fill="#3CA35D" d="m1361.605 1314.962.875-.272 7.53 24.244-.875.272zM1372.63 1337.631l10.573-17.167.78.48-10.572 17.167zM1380.108 1330.466l.916-.003.104 34.718-.916.003zM1373.43 1361.18l.912-.08 2.01 22.858-.912.08zM1353.073 1387.561l1.113-72.221.916.014-1.112 72.222zM1360.278 1387.125l-.915-.043c1.175-25.15 2.158-38.144 2.921-38.623l.46-.037-.36.843c.232.098.449-.04.499-.142-.67 1.33-1.925 23.455-2.605 38.002zM1342.205 1327.011l.8-.447 6.72 12.037-.801.447z"/><path fill="#3CA35D" d="m1356.366 1339.484.913-.088 3.67 38.383-.913.087zM1345.284 1392.185l-1.905-29.942.914-.057 1.422 22.339 4.763-26.81-3.712-42.474.913-.08 3.712 42.654z"/><path fill="#3CA35D" d="m1337.442 1375.746 8.628-35.494.89.216-8.628 35.494z"/><path fill="#3CA35D" d="m1338.632 1392.084-9.304-28.707-.005-.048-4.687-43.307.911-.099 4.682 43.261 7.368 22.732-1.35-69.787.916-.018z"/><path fill="#3CA35D" d="m1317.378 1324.57.844-.358 10.064 23.69-.844.358zM1330.556 1319.36l.904-.146 6.55 40.487-.904.146zM1332.326 1389.656c-5.609-12.57-15.026-33.734-15.072-34.257l.913-.079-.457.039.446-.102c.274.941 10.926 24.881 15.006 34.026l-.836.373zM1314.025 1328.233l.871-.285 19.785 60.59-.872.285z"/><path fill="#3CA35D" d="m1319.04 1375.259.586-.704 10.857 9.027-.585.704zM1401.17 1342.558l4.991-2.917s-1.109 3.479-2.231 4.479c-1.123 1-5.224-.124-2.76-1.562zM1354.675 1330.019l4.064-2.376s-.903 2.834-1.817 3.648c-.913.814-4.253-.101-2.247-1.272zM1361.775 1359.287l2.77-3.808s.31 2.958-.201 4.07c-.511 1.113-3.938 1.615-2.569-.262zM1343.446 1329.196l-3.644-4.655s-.791 1.597.671 3.652c1.383 1.944 2.172 1.652 2.973 1.003zM1333.798 1344.173l-3.644-4.655s-.791 1.597.671 3.652c1.383 1.944 2.173 1.652 2.973 1.003zM1342.132 1345.528l.973 6.697s-3.396-.968-3.49-2.925c-.092-1.957 2.517-3.772 2.517-3.772zM1378.751 1335.631s.941 6.053 1.352 6.822c.411.77-3.731-1.155-3.709-3.108.023-1.952 1.448-1.929 2.357-3.714zM1377.756 1350.083s1.982 5.796 2.521 6.483c.539.686-3.876-.488-4.194-2.414-.319-1.927 1.089-2.153 1.673-4.069zM1408.724 1356.356s-3.523 2.422-4.11 2.582c-.587.16 2.374 1.339 3.354.394.98-.947.285-1.66.756-2.976zM1367.95 1337.247s.449 4.251.71 4.802c.26.55-2.561-.933-2.479-2.293.081-1.361 1.074-1.296 1.769-2.509zM1364.322 1367.689s-1.959 3.8-2.4 4.219c-.442.419 2.726.058 3.141-1.239.417-1.298-.533-1.597-.741-2.98zM1396.157 1325.985s-3.523 2.422-4.11 2.582c-.587.159 2.374 1.339 3.354.393.98-.945.285-1.659.756-2.975zM1367.206 1318.504s-.512 4.244-.78 4.791c-.268.546 2.575-.897 2.513-2.257-.063-1.362-1.057-1.311-1.733-2.534zM1347.949 1357.454s1.513 4.425 1.925 4.949c.412.524-2.959-.372-3.203-1.844-.244-1.47.832-1.642 1.278-3.105zM1326.094 1348.332s1.601 2.956 1.955 3.278c.355.323-2.142.089-2.49-.923-.348-1.014.393-1.264.535-2.355zM1322.993 1324.39s1.659 3.062 2.026 3.397c.368.334-2.22.093-2.581-.958-.361-1.051.407-1.31.555-2.439zM1359.7 1379.275s-2.01-3.657-1.851-5.7c.16-2.044-2.734 2.252-1.429 4.287 1.305 2.037 2.721 1.463 3.28 1.413zM1337.606 1368.027s-2.601-3.264-2.789-5.304c-.19-2.042-2.313 2.682-.683 4.467 1.631 1.786 2.929.98 3.472.837zM1308.159 1331.49l.814-.42 18.555 35.914-.814.42z"/><path fill="#3CA35D" d="m1300.691 1336.31.796-.453 24.866 43.612-.796.454zM1386.9 1384.397l24.184-9.128.324.858-24.185 9.128zM270.291 1615.544l-4.912 8.698s-2.772-3.95-1.808-5.235c.965-1.282 6.72-3.463 6.72-3.463zM209.602 1631.474l5.003 8.647s-4.81.384-5.428-1.1c-.615-1.481.425-7.547.425-7.547zM232.036 1627.391l8.555-5s-1.901 5.964-3.824 7.678c-1.924 1.713-8.954-.213-4.731-2.678zM108.008 1575.132l-6.246-7.98s-1.356 2.737 1.15 6.261c2.371 3.332 3.724 2.831 5.096 1.719zM113.517 1600.612s3.818 7.049 4.663 7.818c.845.768-5.108.214-5.938-2.204-.832-2.416.937-3.013 1.275-5.614zM232.11 1584.559l1.638-43.077 1.571.06-1.638 43.077z"/><path fill="#3CA35D" d="m215.062 1651.738-1.481-.514 29.393-105.911 1.513.419-26.069 93.932c14.08-33.605 34.648-82.784 35.105-84.222l1.519.398c-.289 1.211-35.919 86.209-39.98 95.898z"/><path fill="#3CA35D" d="m243.434 1579.803 2.914-21.148 1.556.214-2.915 21.149zM230.68 1610.316l34.529-46.154 1.257.94-34.528 46.155zM222.134 1634.578l-.941-1.259c3.211-2.402 52.818-51.925 54.162-54.07l.639.4.547-.69.302.638c-.024 1.719-54.164 54.573-54.709 54.981zM220.429 1652.118l59.301-64.452 1.157 1.064-59.302 64.451z"/><path fill="#3CA35D" d="m235.144 1636.57 42.82-18.38.62 1.445-42.82 18.379zM203.756 1652.137l-1.57.034-.716-32.813 14.369-83.513 1.548.268-14.358 83.363z"/><path fill="#3CA35D" d="m203.303 1622.368-1.542.297c-17.702-92.037-17.452-92.401-17.212-92.754l.649.443.144.77-.142-.772.779.021c.095 2.015 11.374 61.056 17.324 91.995z"/><path fill="#3CA35D" d="m202.771 1616.324-1.568-.105 2.833-42.762 3.689-41.858 1.564.138-3.687 41.841z"/><path fill="#3CA35D" d="m191.333 1529.988 1.5-.466 12.907 41.56-1.5.465zM210.162 1569.168l18.133-29.42 1.337.825-18.133 29.42zM223.108 1556.602l1.57-.004.167 59.512-1.57.004zM211.413 1609.31l1.565-.138 3.438 39.183-1.565.137zM176.78 1654.69l1.894-123.8 1.57.024-1.894 123.8zM189.037 1653.75l-1.569-.073c2.014-43.111 3.699-65.384 5.008-66.205l.789-.065-.617 1.446c.398.168.77-.068.855-.243-1.149 2.28-3.3 40.206-4.466 65.14zM158.021 1550.725l1.372-.766 11.517 20.633-1.372.766z"/><path fill="#3CA35D" d="m182.17 1571.914 1.563-.15 6.298 65.787-1.563.15zM163.335 1662.424l-3.265-51.324 1.567-.099 2.437 38.293 8.165-45.956-6.364-72.806 1.565-.137 6.364 73.114z"/><path fill="#3CA35D" d="m149.922 1634.152 14.777-60.848 1.525.37-14.776 60.848z"/><path fill="#3CA35D" d="m151.933 1662.251-15.949-49.208-.008-.081-8.034-74.236 1.561-.168 8.026 74.155 12.629 38.966-2.314-119.625 1.571-.03z"/><path fill="#3CA35D" d="m115.466 1546.463 1.446-.614 17.25 40.607-1.446.615zM138.058 1537.355l1.55-.25 11.234 69.393-1.55.251zM141.123 1658.089c-9.615-21.546-25.758-57.825-25.836-58.722l1.565-.134-.783.067.764-.175c.469 1.612 18.728 42.649 25.723 58.325l-1.433.639zM109.768 1552.867l1.494-.488 33.913 103.86-1.493.487z"/><path fill="#3CA35D" d="m118.43 1633.374 1.004-1.208 18.61 15.473-1.004 1.208zM259.132 1577.357l8.555-5s-1.901 5.964-3.825 7.678c-1.923 1.714-8.953-.213-4.73-2.678zM179.433 1555.863l6.967-4.074s-1.547 4.859-3.114 6.253c-1.567 1.396-7.292-.172-3.853-2.179zM191.604 1606.033l4.747-6.527s.531 5.07-.344 6.977c-.876 1.906-6.749 2.767-4.403-.45zM160.185 1554.453l-6.247-7.98s-1.356 2.737 1.151 6.26c2.371 3.333 3.724 2.832 5.096 1.72zM143.647 1580.125l-6.246-7.98s-1.356 2.737 1.15 6.261c2.37 3.332 3.724 2.831 5.096 1.719zM157.932 1582.448l1.668 11.479s-5.822-1.659-5.981-5.014c-.16-3.354 4.313-6.465 4.313-6.465zM220.703 1565.484s1.613 10.375 2.317 11.694c.706 1.319-6.396-1.981-6.358-5.328.039-3.348 2.482-3.308 4.041-6.366zM218.997 1590.256s3.397 9.936 4.321 11.112c.925 1.176-6.644-.836-7.19-4.138-.546-3.303 1.868-3.69 2.869-6.974zM272.079 1601.009s-6.038 4.151-7.045 4.426c-1.007.273 4.07 2.296 5.749.674 1.681-1.622.49-2.845 1.296-5.1zM202.187 1568.252s.771 7.286 1.217 8.23c.447.943-4.39-1.6-4.249-3.93.139-2.332 1.842-2.221 3.032-4.3zM195.97 1620.434s-3.357 6.514-4.115 7.232 4.672.099 5.385-2.124c.714-2.225-.915-2.738-1.27-5.108zM250.538 1548.949s-6.038 4.151-7.045 4.426c-1.007.273 4.07 2.295 5.749.674 1.681-1.622.49-2.844 1.296-5.1zM200.913 1536.124s-.877 7.275-1.336 8.213c-.46.936 4.413-1.538 4.307-3.868-.108-2.335-1.812-2.249-2.971-4.345zM167.903 1602.891s2.594 7.586 3.3 8.484c.705.897-5.073-.639-5.49-3.16-.418-2.522 1.425-2.817 2.19-5.324zM130.44 1587.254s2.744 5.067 3.352 5.62c.608.553-3.671.153-4.268-1.583-.597-1.739.674-2.167.916-4.037zM125.125 1546.214s2.844 5.249 3.473 5.823c.63.572-3.805.159-4.424-1.642-.618-1.802.698-2.246.951-4.181zM188.046 1640.295s-3.446-6.269-3.172-9.771c.273-3.503-4.687 3.86-2.45 7.35 2.237 3.49 4.663 2.506 5.622 2.421zM150.174 1621.015s-4.458-5.595-4.781-9.093c-.325-3.5-3.966 4.598-1.171 7.658 2.797 3.061 5.022 1.68 5.952 1.435zM99.767 1558.332l1.395-.721 31.807 61.562-1.395.72z"/><path fill="#3CA35D" d="m86.928 1566.613 1.364-.778 42.624 74.758-1.363.777zM234.613 1649.202l41.457-15.646.555 1.47-41.457 15.646zM1640.871 1641.428c-19.784 17.949-21.362 36.81-15.654 53.342h2.806c-9.114-31.868 12.848-53.342 12.848-53.342z"/><path fill="#3CA35D" d="M1638.473 1655.868c-6.478 13.685-7.78 27.794-6.344 40.98h1.677c-2.33-24.84 4.667-40.98 4.667-40.98zM1607.026 1662.863c-.257 9.171 1.725 18.259 5.082 26.991h1.669c-6.662-16.442-6.751-26.991-6.751-26.991zM567.085 1601.892c-19.784 17.949-21.362 36.81-15.654 53.342h2.806c-9.113-31.868 12.848-53.342 12.848-53.342z"/><path fill="#3CA35D" d="M564.688 1616.332c-6.478 13.685-7.78 27.794-6.344 40.98h1.677c-2.33-24.84 4.667-40.98 4.667-40.98zM533.241 1623.327c-.257 9.171 1.725 18.259 5.082 26.991h1.669c-6.662-16.442-6.751-26.991-6.751-26.991zM255.355 1698.23c-19.784 17.949-21.362 36.81-15.654 53.342h2.806c-9.113-31.867 12.848-53.342 12.848-53.342z"/><path fill="#3CA35D" d="M252.958 1712.671c-6.478 13.685-7.78 27.794-6.344 40.98h1.677c-2.33-24.84 4.667-40.98 4.667-40.98zM221.511 1719.665c-.257 9.171 1.725 18.259 5.082 26.991h1.669c-6.662-16.441-6.751-26.991-6.751-26.991zM2756.65 1653.341c-19.784 17.949-21.362 36.81-15.655 53.342h2.806c-9.113-31.867 12.849-53.342 12.849-53.342z"/><path fill="#3CA35D" d="M2754.252 1667.782c-6.478 13.685-7.78 27.794-6.344 40.98h1.677c-2.33-24.841 4.667-40.98 4.667-40.98zM2722.806 1674.776c-.257 9.171 1.725 18.259 5.082 26.991h1.669c-6.663-16.441-6.751-26.991-6.751-26.991zM1930.957 1390.948c-14.629 13.272-15.796 27.219-11.576 39.443h2.075c-6.738-23.564 9.501-39.443 9.501-39.443z"/><path fill="#3CA35D" d="M1929.184 1401.626c-4.79 10.119-5.753 20.552-4.691 30.303h1.24c-1.723-18.369 3.451-30.303 3.451-30.303zM1905.931 1406.798c-.19 6.781 1.276 13.501 3.758 19.958h1.234c-4.926-12.157-4.992-19.958-4.992-19.958zM1231.066 1436.806c-14.629 13.272-15.796 27.219-11.576 39.443h2.075c-6.738-23.564 9.501-39.443 9.501-39.443z"/><path fill="#3CA35D" d="M1229.293 1447.484c-4.79 10.119-5.753 20.552-4.691 30.302h1.24c-1.723-18.368 3.451-30.302 3.451-30.302zM1206.04 1452.656c-.19 6.781 1.276 13.502 3.758 19.958h1.234c-4.927-12.157-4.992-19.958-4.992-19.958zM1017.051 1623.01c-14.629 13.272-15.796 27.219-11.575 39.443h2.075c-6.739-23.564 9.5-39.443 9.5-39.443z"/><path fill="#3CA35D" d="M1015.278 1633.687c-4.79 10.119-5.753 20.552-4.691 30.303h1.24c-1.723-18.368 3.451-30.303 3.451-30.303zM992.026 1638.86c-.19 6.781 1.275 13.501 3.757 19.958h1.234c-4.926-12.158-4.991-19.958-4.991-19.958z"/><path fill="#BDB945" d="m412.009 1305.326-15.753 42.017 7.876 8.17H393.63l-9.189 24.51 6.564 15.756h-10.502l-7.22 18.674 11.815 14.006-15.096-4.085-7.876 24.51 18.755 15.694c20.36-28.757 38.722-58.66 58.683-87.225l-27.555-72.027z"/><path fill="#94A33C" d="m434.326 1415.036 10.502-23.926-5.264-13.758c-19.961 28.565-38.323 58.468-58.683 87.225l14.719 12.317 43.976-3.501 25.598-25.677-17.065-46.102-13.783 13.422z"/><path fill="#BDB945" d="m1788.394 1280.72-7.923 21.132 3.961 4.109h-5.282l-4.622 12.327 3.301 7.925h-5.282l-3.631 9.392 5.942 7.044-7.593-2.055-3.961 12.327 9.433 7.893c10.24-14.463 19.475-29.502 29.514-43.869l-13.857-36.225z"/><path fill="#94A33C" d="m1799.617 1335.898 5.282-12.033-2.647-6.919c-10.039 14.366-19.274 29.406-29.514 43.869l7.403 6.195 22.117-1.761 12.874-12.914-8.583-23.186-6.932 6.749z"/></svg>